<?xml version="1.0" encoding="utf-8"?>
<!-- Generator: Adobe Illustrator 22.0.1, SVG Export Plug-In . SVG Version: 6.00 Build 0)  -->
<svg version="1.1" id="supported__x5F__white" xmlns="http://www.w3.org/2000/svg" xmlns:xlink="http://www.w3.org/1999/xlink"
	 x="0px" y="0px" viewBox="0 0 597.3 210.8" style="enable-background:new 0 0 597.3 210.8;" xml:space="preserve">
<style type="text/css">
	.st0{fill:#ED5922;}
	.st1{fill:#FFFFFF;}
	.st2{fill:#898989;}
</style>
<g>
	<g>
		<g>
			<g>
				<circle class="st0" cx="562.1" cy="37.3" r="35.6"/>
				<path class="st1" d="M537.9,32.5c-2.6,0-4.8,2.1-4.8,4.8c0,2.6,2.1,4.8,4.8,4.8c2.6,0,4.8-2.1,4.8-4.8
					C542.7,34.7,540.5,32.5,537.9,32.5z M571.9,54.2c-2.3,1.3-3.1,4.2-1.7,6.5c1.3,2.3,4.2,3.1,6.5,1.7c2.3-1.3,3.1-4.2,1.7-6.5
					C577,53.6,574.1,52.8,571.9,54.2z M548.2,37.3c0-4.7,2.3-8.9,5.9-11.4l-3.5-5.8c-4.2,2.8-7.3,7-8.5,12c1.5,1.2,2.5,3.1,2.5,5.2
					c0,2.1-1,4-2.5,5.2c1.3,5,4.4,9.2,8.5,12l3.5-5.8C550.6,46.1,548.2,42,548.2,37.3z M562.1,23.4c7.3,0,13.2,5.6,13.8,12.7
					l6.8-0.1c-0.3-5.2-2.6-9.9-6.1-13.4c-1.8,0.7-3.9,0.6-5.7-0.5c-1.8-1-2.9-2.8-3.3-4.7c-1.8-0.5-3.6-0.8-5.5-0.8
					c-3.3,0-6.4,0.8-9.2,2.1l3.3,5.9C558.1,23.9,560,23.4,562.1,23.4z M562.1,51.2c-2.1,0-4.1-0.5-5.9-1.3l-3.3,5.9
					c2.8,1.4,5.9,2.1,9.2,2.1c1.9,0,3.8-0.3,5.5-0.8c0.3-1.9,1.4-3.7,3.3-4.7c1.8-1,3.9-1.1,5.7-0.5c3.5-3.5,5.8-8.2,6.1-13.4
					l-6.8-0.1C575.3,45.6,569.4,51.2,562.1,51.2z M571.9,20.4c2.3,1.3,5.2,0.5,6.5-1.7c1.3-2.3,0.5-5.2-1.7-6.5
					c-2.3-1.3-5.2-0.5-6.5,1.7C568.8,16.2,569.6,19.1,571.9,20.4z"/>
			</g>
			<g>
				<path class="st0" d="M73.7,130.8c-3.6,0.9-8.4,1.9-14.3,2.9c-5.9,1-12.8,1.5-20.6,1.5c-6.8,0-12.5-1-17.1-3
					c-4.6-2-8.4-4.8-11.2-8.4c-2.8-3.6-4.9-7.9-6.1-12.8c-1.2-4.9-1.9-10.4-1.9-16.4V45.1h15.8v46.1c0,10.7,1.7,18.4,5.1,23.1
					c3.4,4.6,9.1,7,17.1,7c1.7,0,3.4-0.1,5.3-0.2c1.8-0.1,3.5-0.3,5.1-0.4c1.6-0.2,3-0.3,4.3-0.5c1.3-0.2,2.2-0.4,2.8-0.6V45.1h15.8
					L73.7,130.8L73.7,130.8z"/>
				<path class="st0" d="M112.2,49c1.9-1.2,4.8-2.5,8.7-3.9c3.9-1.4,8.4-2,13.5-2c6.3,0,12,1.1,16.9,3.4c4.9,2.3,9.1,5.4,12.5,9.5
					c3.4,4.1,6,8.9,7.7,14.6c1.8,5.7,2.6,11.9,2.6,18.7c0,7.1-1,13.5-3.1,19.3c-2.1,5.7-5.1,10.5-8.9,14.5c-3.8,4-8.5,7-13.9,9.2
					c-5.4,2.1-11.5,3.2-18.3,3.2c-7.4,0-13.9-0.5-19.5-1.5c-5.7-1-10.3-2-13.9-3.1V4.4l15.8-2.7L112.2,49L112.2,49z M112.2,119.6
					c1.6,0.5,3.8,0.9,6.7,1.3c2.9,0.4,6.5,0.6,10.8,0.6c8.5,0,15.3-2.8,20.4-8.4c5.1-5.6,7.6-13.5,7.6-23.8c0-4.5-0.5-8.8-1.4-12.7
					c-0.9-4-2.4-7.4-4.4-10.3c-2-2.9-4.7-5.1-7.9-6.8c-3.2-1.6-7.1-2.5-11.6-2.5c-4.3,0-8.3,0.7-11.9,2.2c-3.6,1.5-6.4,3-8.3,4.6
					L112.2,119.6L112.2,119.6z"/>
				<path class="st0" d="M262.2,130.8c-3.6,0.9-8.4,1.9-14.3,2.9c-5.9,1-12.8,1.5-20.6,1.5c-6.8,0-12.5-1-17.1-3
					c-4.6-2-8.4-4.8-11.2-8.4c-2.8-3.6-4.9-7.9-6.1-12.8c-1.2-4.9-1.9-10.4-1.9-16.4V45.1h15.8v46.1c0,10.7,1.7,18.4,5.1,23.1
					c3.4,4.6,9.1,7,17.1,7c1.7,0,3.4-0.1,5.3-0.2c1.8-0.1,3.5-0.3,5.1-0.4c1.6-0.2,3-0.3,4.3-0.5c1.3-0.2,2.2-0.4,2.8-0.6V45.1h15.8
					L262.2,130.8L262.2,130.8z"/>
				<path class="st0" d="M284.9,47.6c3.6-0.9,8.4-1.9,14.4-2.9c6-1,12.9-1.5,20.7-1.5c7,0,12.8,1,17.5,3c4.6,2,8.3,4.8,11.1,8.3
					c2.8,3.6,4.7,7.8,5.9,12.8c1.1,5,1.7,10.5,1.7,16.5v49.5h-15.8V87.2c0-5.4-0.4-10.1-1.1-13.9c-0.7-3.8-1.9-7-3.6-9.3
					c-1.7-2.4-4-4.1-6.8-5.2c-2.8-1.1-6.3-1.6-10.5-1.6c-1.7,0-3.5,0.1-5.3,0.2c-1.8,0.1-3.5,0.3-5.2,0.4c-1.6,0.2-3.1,0.4-4.4,0.6
					c-1.3,0.2-2.2,0.4-2.8,0.5v74.5h-15.8L284.9,47.6L284.9,47.6z"/>
				<path class="st0" d="M392.7,45.1h33.4v13.2h-33.4V99c0,4.4,0.3,8.1,1,10.9c0.7,2.9,1.7,5.1,3.1,6.8c1.4,1.6,3.1,2.8,5.1,3.5
					c2,0.7,4.4,1,7.1,1c4.9,0,8.7-0.5,11.5-1.6c2.8-1.1,4.8-1.8,5.8-2.3l3.4,12.9c-1.6,0.8-4.4,1.8-8.4,3.1c-4,1.2-8.6,1.9-13.7,1.9
					c-6,0-10.9-0.8-14.8-2.3c-3.9-1.5-7-3.8-9.4-6.9c-2.4-3.1-4-6.8-5-11.3c-1-4.5-1.4-9.6-1.4-15.5V20.5l15.8-2.7L392.7,45.1
					L392.7,45.1L392.7,45.1z"/>
				<path class="st0" d="M511.9,130.8c-3.6,0.9-8.4,1.9-14.3,2.9c-5.9,1-12.8,1.5-20.6,1.5c-6.8,0-12.5-1-17.1-3
					c-4.6-2-8.4-4.8-11.2-8.4c-2.8-3.6-4.9-7.9-6.1-12.8c-1.2-4.9-1.9-10.4-1.9-16.4V45.1h15.8v46.1c0,10.7,1.7,18.4,5.1,23.1
					c3.4,4.6,9.1,7,17.1,7c1.7,0,3.4-0.1,5.3-0.2c1.8-0.1,3.5-0.3,5.1-0.4s3-0.3,4.3-0.5c1.3-0.2,2.2-0.4,2.8-0.6V45.1h15.8
					L511.9,130.8L511.9,130.8z"/>
			</g>
		</g>
	</g>
	<g>
		<path class="st2" d="M35,183.3c0,3.1-0.5,5.8-1.5,8.1c-1,2.3-2.3,4.2-4.1,5.7c-1.8,1.5-3.9,2.7-6.3,3.4c-2.4,0.8-5.1,1.1-8,1.1
			c-1.5,0-3-0.1-4.6-0.2s-3-0.4-4.2-0.7v-34.9c1.2-0.3,2.6-0.6,4.2-0.8c1.6-0.2,3.1-0.2,4.6-0.2c2.9,0,5.6,0.4,8,1.1
			s4.5,1.9,6.3,3.4c1.8,1.5,3.1,3.4,4.1,5.7C34.5,177.5,35,180.2,35,183.3z M9.8,198.3c0.2,0,0.7,0.1,1.6,0.2
			c0.9,0.1,2.2,0.2,4.1,0.2c2.6,0,4.9-0.4,6.8-1.1c2-0.7,3.6-1.7,4.9-3.1c1.3-1.3,2.3-2.9,3-4.8c0.7-1.9,1-4,1-6.4
			c0-2.4-0.3-4.5-1-6.4c-0.7-1.9-1.7-3.5-3-4.8c-1.3-1.3-3-2.3-4.9-3.1c-2-0.7-4.2-1.1-6.8-1.1c-1.9,0-3.2,0.1-4.1,0.2
			s-1.4,0.2-1.6,0.2V198.3z"/>
		<path class="st2" d="M40.3,187.9c0-2.4,0.3-4.4,1-6.2c0.7-1.8,1.6-3.2,2.7-4.4c1.1-1.2,2.4-2.1,3.8-2.6c1.4-0.6,2.9-0.9,4.4-0.9
			c3.3,0,5.9,1.1,7.9,3.2c2,2.2,3,5.5,3,10c0,0.3,0,0.6,0,0.8c0,0.3,0,0.5-0.1,0.8H44c0.1,3.3,0.9,5.9,2.5,7.6
			c1.5,1.8,4,2.7,7.3,2.7c1.8,0,3.3-0.2,4.4-0.5c1.1-0.3,1.9-0.6,2.4-0.9l0.6,2.9c-0.5,0.3-1.4,0.6-2.7,1c-1.3,0.4-2.9,0.6-4.7,0.6
			c-2.4,0-4.4-0.3-6.1-1c-1.7-0.7-3-1.7-4.1-2.9c-1.1-1.3-1.9-2.7-2.4-4.5C40.6,191.8,40.3,189.9,40.3,187.9z M59.5,185.7
			c-0.1-2.8-0.7-5-2-6.6c-1.3-1.6-3-2.4-5.3-2.4c-1.2,0-2.3,0.2-3.3,0.7c-1,0.5-1.8,1.1-2.5,2c-0.7,0.8-1.3,1.8-1.7,2.8
			c-0.4,1.1-0.6,2.2-0.7,3.4H59.5L59.5,185.7z"/>
		<path class="st2" d="M76.2,201.9c-1.1,0-2.2-0.2-3-0.4c-0.9-0.3-1.6-0.7-2.1-1.2c-0.6-0.5-1-1.2-1.3-2.1c-0.3-0.9-0.4-1.9-0.4-3.2
			v-33.4l3.4-0.6v34c0,0.8,0.1,1.5,0.2,2c0.2,0.5,0.4,0.9,0.7,1.2c0.3,0.3,0.7,0.5,1.2,0.7c0.5,0.1,1.1,0.3,1.8,0.4L76.2,201.9z"/>
		<path class="st2" d="M86,166.2c0,0.8-0.2,1.4-0.7,1.9c-0.5,0.5-1.1,0.7-1.8,0.7s-1.3-0.2-1.8-0.7c-0.5-0.5-0.7-1.1-0.7-1.9
			c0-0.8,0.2-1.4,0.7-1.9c0.5-0.5,1.1-0.7,1.8-0.7c0.7,0,1.3,0.2,1.8,0.7C85.8,164.8,86,165.4,86,166.2z M85.2,201.4h-3.4v-27h3.4
			V201.4z"/>
		<path class="st2" d="M101.9,197.8c0.7-1.5,1.5-3.2,2.3-5.1c0.8-1.9,1.5-3.9,2.2-6c0.7-2.1,1.4-4.2,2-6.3c0.6-2.1,1.1-4.1,1.5-5.9
			h3.4c-0.6,2.5-1.3,4.9-2.1,7.3s-1.6,4.8-2.4,7.1c-0.9,2.3-1.8,4.5-2.7,6.6c-0.9,2.1-1.8,4.1-2.7,6h-3.2c-0.9-1.9-1.8-3.9-2.7-6
			c-0.9-2.1-1.8-4.3-2.7-6.6c-0.9-2.3-1.7-4.6-2.4-7.1c-0.8-2.4-1.5-4.8-2.1-7.3h3.6c0.4,1.8,0.9,3.8,1.5,5.9c0.6,2.1,1.3,4.2,2,6.3
			c0.7,2.1,1.5,4.1,2.2,6C100.4,194.5,101.1,196.3,101.9,197.8z"/>
		<path class="st2" d="M116,187.9c0-2.4,0.3-4.4,1-6.2c0.7-1.8,1.6-3.2,2.7-4.4c1.1-1.2,2.4-2.1,3.8-2.6c1.4-0.6,2.9-0.9,4.4-0.9
			c3.3,0,5.9,1.1,7.9,3.2c2,2.2,3,5.5,3,10c0,0.3,0,0.6,0,0.8c0,0.3,0,0.5-0.1,0.8h-19c0.1,3.3,0.9,5.9,2.5,7.6
			c1.5,1.8,4,2.7,7.3,2.7c1.8,0,3.3-0.2,4.4-0.5c1.1-0.3,1.9-0.6,2.4-0.9l0.6,2.9c-0.5,0.3-1.4,0.6-2.7,1c-1.3,0.4-2.9,0.6-4.7,0.6
			c-2.4,0-4.4-0.3-6.1-1c-1.7-0.7-3-1.7-4.1-2.9c-1.1-1.3-1.9-2.7-2.4-4.5C116.2,191.8,116,189.9,116,187.9z M135.2,185.7
			c-0.1-2.8-0.7-5-2-6.6c-1.3-1.6-3-2.4-5.3-2.4c-1.2,0-2.3,0.2-3.3,0.7c-1,0.5-1.8,1.1-2.5,2c-0.7,0.8-1.3,1.8-1.7,2.8
			c-0.4,1.1-0.6,2.2-0.7,3.4H135.2L135.2,185.7z"/>
		<path class="st2" d="M154.3,173.9c1.1,0,2.2,0.1,3.2,0.3c1,0.2,1.7,0.4,2.1,0.5l-0.7,2.9c-0.3-0.1-0.8-0.3-1.7-0.4s-2-0.2-3.4-0.2
			c-1.5,0-2.6,0.1-3.5,0.3s-1.5,0.4-1.8,0.5v23.7h-3.4v-25.8c0.9-0.4,2.1-0.8,3.6-1.2C150.2,174.1,152.1,173.9,154.3,173.9z"/>
		<path class="st2" d="M161.7,187.9c0-2.4,0.3-4.4,1-6.2c0.7-1.8,1.6-3.2,2.7-4.4c1.1-1.2,2.4-2.1,3.8-2.6c1.4-0.6,2.9-0.9,4.4-0.9
			c3.3,0,5.9,1.1,7.9,3.2c2,2.2,3,5.5,3,10c0,0.3,0,0.6,0,0.8c0,0.3,0,0.5-0.1,0.8h-19c0.1,3.3,0.9,5.9,2.5,7.6s4,2.7,7.3,2.7
			c1.8,0,3.3-0.2,4.4-0.5s1.9-0.6,2.4-0.9l0.6,2.9c-0.5,0.3-1.4,0.6-2.7,1c-1.3,0.4-2.9,0.6-4.7,0.6c-2.4,0-4.4-0.3-6.1-1
			c-1.7-0.7-3-1.7-4.1-2.9c-1.1-1.3-1.9-2.7-2.4-4.5C162,191.8,161.7,189.9,161.7,187.9z M180.9,185.7c-0.1-2.8-0.7-5-2-6.6
			c-1.3-1.6-3-2.4-5.3-2.4c-1.2,0-2.3,0.2-3.3,0.7c-1,0.5-1.8,1.1-2.5,2c-0.7,0.8-1.3,1.8-1.7,2.8c-0.4,1.1-0.6,2.2-0.7,3.4H180.9
			L180.9,185.7z"/>
		<path class="st2" d="M212.7,200.6c-1,0.3-2.3,0.7-3.9,1c-1.6,0.3-3.6,0.5-6,0.5c-2,0-3.8-0.3-5.4-1s-3-1.6-4.2-2.8
			c-1.2-1.2-2.1-2.7-2.7-4.4c-0.6-1.7-1-3.7-1-5.9c0-2.1,0.3-3.9,0.8-5.7c0.5-1.7,1.3-3.2,2.4-4.5c1-1.3,2.3-2.2,3.8-2.9
			c1.5-0.7,3.2-1,5.2-1c1.8,0,3.3,0.3,4.6,0.8c1.3,0.5,2.3,1,2.8,1.4v-14.5l3.4-0.6V200.6z M209.3,179.3c-0.3-0.2-0.7-0.5-1.2-0.8
			c-0.5-0.3-1-0.5-1.6-0.8c-0.6-0.2-1.3-0.4-2-0.6c-0.7-0.2-1.5-0.2-2.3-0.2c-1.7,0-3.1,0.3-4.2,0.9c-1.1,0.6-2,1.4-2.7,2.4
			c-0.7,1-1.2,2.2-1.5,3.5c-0.3,1.3-0.5,2.8-0.5,4.3c0,3.6,0.9,6.3,2.7,8.2s4.1,2.8,7.1,2.8c1.7,0,3-0.1,4-0.2
			c1-0.2,1.8-0.3,2.3-0.5V179.3z"/>
		<path class="st2" d="M236.9,176c0.6-0.5,1.5-0.9,2.8-1.4c1.3-0.5,2.8-0.8,4.6-0.8c1.9,0,3.7,0.3,5.2,1c1.5,0.7,2.8,1.7,3.8,2.9
			c1,1.3,1.8,2.7,2.4,4.5c0.5,1.7,0.8,3.6,0.8,5.7c0,2.2-0.3,4.2-1,5.9c-0.6,1.7-1.5,3.2-2.7,4.4c-1.2,1.2-2.6,2.2-4.2,2.8
			c-1.6,0.6-3.4,1-5.4,1c-2.4,0-4.4-0.2-6-0.5c-1.6-0.3-2.9-0.6-3.9-1v-39.1l3.4-0.6L236.9,176L236.9,176z M236.9,198.2
			c0.5,0.2,1.3,0.3,2.3,0.5c1,0.2,2.4,0.2,4,0.2c2.9,0,5.3-0.9,7.1-2.8s2.7-4.6,2.7-8.2c0-1.5-0.2-2.9-0.5-4.3
			c-0.3-1.3-0.8-2.5-1.5-3.5c-0.7-1-1.6-1.8-2.7-2.4c-1.1-0.6-2.5-0.9-4.2-0.9c-0.8,0-1.6,0.1-2.3,0.2c-0.7,0.2-1.4,0.4-2,0.6
			s-1.2,0.5-1.6,0.8c-0.5,0.3-0.9,0.5-1.2,0.8L236.9,198.2L236.9,198.2z"/>
		<path class="st2" d="M270.2,202c-1.1-2.1-2.2-4.3-3.3-6.6c-1.1-2.3-2.1-4.6-3-7c-0.9-2.4-1.8-4.7-2.5-7c-0.8-2.4-1.4-4.7-2-6.9
			h3.6c0.4,1.7,0.9,3.5,1.5,5.4s1.3,3.9,2,6c0.7,2.1,1.6,4.2,2.5,6.3c0.9,2.2,1.9,4.3,3,6.4c0.8-2.1,1.5-4.2,2.1-6.1
			c0.6-1.9,1.2-3.8,1.7-5.7c0.5-1.9,1-3.8,1.5-5.8c0.5-2,1-4.1,1.5-6.4h3.4c-1.1,5.1-2.4,10-3.8,14.7c-1.4,4.8-3,9.1-4.6,13.1
			c-0.7,1.6-1.3,2.9-2,4.1c-0.7,1.1-1.5,2.1-2.3,2.8c-0.9,0.7-1.9,1.3-3,1.6c-1.1,0.3-2.5,0.5-4,0.5c-0.9,0-1.7-0.1-2.4-0.3
			c-0.7-0.2-1.2-0.4-1.3-0.5l0.7-2.8c0.1,0.1,0.5,0.3,1.2,0.4c0.6,0.2,1.3,0.3,2,0.3c1,0,1.9-0.1,2.6-0.3c0.8-0.2,1.5-0.6,2.1-1.1
			c0.6-0.5,1.2-1.2,1.7-2C269.3,204.2,269.7,203.2,270.2,202z"/>
		<path class="st2" d="M314.8,202.2c-2.3,0-4.5-0.4-6.5-1.3c-2-0.8-3.7-2.1-5.2-3.7c-1.5-1.6-2.6-3.6-3.5-5.9
			c-0.9-2.4-1.3-5-1.3-8.1s0.5-5.7,1.4-8.1c0.9-2.4,2.2-4.3,3.7-5.9c1.5-1.6,3.3-2.8,5.3-3.6s4.1-1.2,6.3-1.2c1.4,0,2.6,0.1,3.7,0.3
			s2.1,0.4,2.9,0.7c0.8,0.3,1.5,0.5,2.1,0.8c0.6,0.3,1,0.5,1.4,0.7l-1.1,3.1c-0.9-0.5-2-1-3.3-1.5c-1.3-0.5-3-0.8-5-0.8
			c-2.3,0-4.2,0.4-5.9,1.1c-1.7,0.8-3.1,1.8-4.3,3.2c-1.1,1.4-2,3-2.6,5c-0.6,1.9-0.9,4-0.9,6.4c0,2.4,0.3,4.6,0.9,6.5
			c0.6,1.9,1.4,3.6,2.5,4.9c1.1,1.4,2.5,2.4,4.1,3.1c1.6,0.7,3.5,1.1,5.6,1.1c2.3,0,4.2-0.2,5.8-0.7c1.5-0.4,2.7-0.9,3.5-1.3l1,3
			c-0.2,0.2-0.7,0.4-1.3,0.6c-0.6,0.2-1.3,0.5-2.2,0.7c-0.9,0.2-2,0.4-3.1,0.6C317.6,202.1,316.2,202.2,314.8,202.2z"/>
		<path class="st2" d="M339.4,173.8c1.8,0,3.3,0.3,4.5,0.8c1.2,0.5,2.2,1.2,3,2.1c0.8,0.9,1.3,1.9,1.7,3.2c0.3,1.2,0.5,2.5,0.5,4v17
			c-0.3,0.1-0.9,0.2-1.5,0.3c-0.7,0.1-1.4,0.3-2.3,0.4c-0.9,0.1-1.8,0.3-2.9,0.3c-1.1,0.1-2.1,0.1-3.3,0.1c-1.4,0-2.7-0.2-3.9-0.5
			c-1.2-0.3-2.2-0.8-3.1-1.5c-0.9-0.7-1.6-1.6-2.1-2.6s-0.8-2.4-0.8-3.9c0-1.5,0.3-2.7,0.8-3.8c0.6-1,1.3-1.9,2.4-2.6
			c1-0.7,2.2-1.2,3.6-1.5c1.4-0.3,2.9-0.5,4.5-0.5c0.5,0,1,0,1.5,0.1c0.5,0.1,1.1,0.1,1.6,0.2c0.5,0.1,0.9,0.2,1.3,0.3
			c0.4,0.1,0.6,0.2,0.8,0.2v-1.7c0-0.9-0.1-1.9-0.2-2.7c-0.1-0.9-0.4-1.7-0.9-2.4c-0.5-0.7-1.1-1.3-2-1.7c-0.9-0.4-2-0.7-3.4-0.7
			c-2,0-3.5,0.1-4.4,0.4s-1.7,0.5-2.1,0.7l-0.5-3c0.6-0.3,1.5-0.5,2.7-0.8C336.1,173.9,337.6,173.8,339.4,173.8z M339.7,199
			c1.3,0,2.5,0,3.5-0.1c1-0.1,1.8-0.2,2.5-0.3V189c-0.4-0.2-1-0.4-1.8-0.5c-0.8-0.2-2-0.3-3.4-0.3c-0.8,0-1.7,0.1-2.6,0.2
			c-0.9,0.1-1.7,0.4-2.5,0.8c-0.8,0.4-1.4,0.9-1.9,1.6c-0.5,0.7-0.7,1.6-0.7,2.8c0,1,0.2,1.9,0.5,2.6c0.3,0.7,0.8,1.3,1.4,1.7
			c0.6,0.4,1.3,0.7,2.2,0.9C337.6,198.9,338.6,199,339.7,199z"/>
		<path class="st2" d="M356.8,175.3c1-0.3,2.4-0.6,4.1-0.9c1.7-0.3,3.8-0.5,6.3-0.5c2.1,0,3.8,0.3,5.1,0.9c1.4,0.6,2.5,1.4,3.3,2.5
			c0.8,1.1,1.4,2.4,1.8,3.9c0.3,1.5,0.5,3.2,0.5,5.1v15.1h-3.4v-14c0-1.9-0.1-3.5-0.4-4.9s-0.7-2.4-1.3-3.2s-1.4-1.4-2.4-1.8
			c-1-0.4-2.2-0.5-3.7-0.5c-1.6,0-3,0.1-4.2,0.3c-1.2,0.2-1.9,0.3-2.3,0.5v23.7h-3.4L356.8,175.3L356.8,175.3L356.8,175.3z"/>
		<path class="st2" d="M408.8,187.9c0,2.1-0.3,4.1-0.9,5.8c-0.6,1.7-1.5,3.2-2.6,4.4c-1.1,1.2-2.4,2.2-3.9,2.8c-1.5,0.7-3.2,1-5,1
			s-3.5-0.3-5-1c-1.5-0.7-2.8-1.6-3.9-2.8c-1.1-1.2-2-2.7-2.6-4.4c-0.6-1.7-0.9-3.7-0.9-5.8c0-2.1,0.3-4.1,0.9-5.8
			c0.6-1.7,1.5-3.2,2.6-4.5c1.1-1.2,2.4-2.2,3.9-2.9c1.5-0.7,3.2-1,5-1s3.5,0.3,5,1c1.5,0.7,2.8,1.6,3.9,2.9c1.1,1.2,2,2.7,2.6,4.5
			C408.5,183.9,408.8,185.8,408.8,187.9z M405.2,187.9c0-3.4-0.8-6.1-2.4-8.1c-1.6-2-3.7-3-6.4-3c-2.7,0-4.8,1-6.4,3
			c-1.6,2-2.4,4.7-2.4,8.1c0,3.4,0.8,6.1,2.4,8c1.6,2,3.7,3,6.4,3c2.7,0,4.8-1,6.4-3C404.4,194,405.2,191.3,405.2,187.9z"/>
		<path class="st2" d="M415.3,175.3c1-0.3,2.4-0.6,4.1-0.9c1.7-0.3,3.8-0.5,6.3-0.5c2.1,0,3.8,0.3,5.1,0.9c1.4,0.6,2.5,1.4,3.3,2.5
			c0.8,1.1,1.4,2.4,1.8,3.9c0.3,1.5,0.5,3.2,0.5,5.1v15.1H433v-14c0-1.9-0.1-3.5-0.4-4.9c-0.3-1.3-0.7-2.4-1.3-3.2
			c-0.6-0.8-1.4-1.4-2.4-1.8c-1-0.4-2.2-0.5-3.7-0.5c-1.6,0-3,0.1-4.2,0.3c-1.2,0.2-1.9,0.3-2.3,0.5v23.7h-3.4L415.3,175.3
			L415.3,175.3z"/>
		<path class="st2" d="M448.2,166.2c0,0.8-0.2,1.4-0.7,1.9c-0.5,0.5-1.1,0.7-1.8,0.7s-1.3-0.2-1.8-0.7c-0.5-0.5-0.7-1.1-0.7-1.9
			c0-0.8,0.2-1.4,0.7-1.9c0.5-0.5,1.1-0.7,1.8-0.7s1.3,0.2,1.8,0.7C447.9,164.8,448.2,165.4,448.2,166.2z M447.4,201.4H444v-27h3.4
			V201.4z"/>
		<path class="st2" d="M466.6,202c-2.1,0-3.9-0.3-5.5-1c-1.6-0.7-2.9-1.6-4-2.9c-1.1-1.2-1.9-2.7-2.4-4.4c-0.6-1.7-0.8-3.6-0.8-5.7
			c0-2.1,0.3-4.1,0.9-5.8c0.6-1.7,1.4-3.2,2.5-4.5c1.1-1.3,2.4-2.2,3.9-2.9c1.5-0.7,3.3-1,5.2-1c1.5,0,2.8,0.1,4.1,0.4
			c1.3,0.2,2.3,0.6,3,0.9l-0.9,2.9c-0.7-0.3-1.5-0.6-2.4-0.8c-0.9-0.2-2-0.3-3.5-0.3c-3,0-5.3,1-6.8,2.9c-1.5,1.9-2.3,4.7-2.3,8.2
			c0,1.6,0.2,3.1,0.5,4.4c0.3,1.3,0.9,2.5,1.7,3.4c0.8,1,1.8,1.7,3,2.2s2.7,0.8,4.5,0.8c1.5,0,2.7-0.2,3.7-0.5
			c1-0.3,1.7-0.6,2.2-0.9l0.7,2.9c-0.6,0.3-1.6,0.7-3,1C469.4,201.8,468,202,466.6,202z"/>
		<path class="st2" d="M487.4,173.8c1.8,0,3.3,0.3,4.5,0.8c1.2,0.5,2.2,1.2,3,2.1c0.8,0.9,1.3,1.9,1.7,3.2c0.3,1.2,0.5,2.5,0.5,4v17
			c-0.3,0.1-0.9,0.2-1.5,0.3c-0.7,0.1-1.4,0.3-2.3,0.4c-0.9,0.1-1.8,0.3-2.9,0.3c-1.1,0.1-2.2,0.1-3.3,0.1c-1.4,0-2.7-0.2-3.9-0.5
			c-1.2-0.3-2.2-0.8-3.1-1.5c-0.9-0.7-1.6-1.6-2.1-2.6s-0.8-2.4-0.8-3.9c0-1.5,0.3-2.7,0.8-3.8c0.6-1,1.3-1.9,2.3-2.6
			c1-0.7,2.2-1.2,3.6-1.5c1.4-0.3,2.9-0.5,4.5-0.5c0.5,0,1,0,1.5,0.1c0.5,0.1,1.1,0.1,1.6,0.2c0.5,0.1,0.9,0.2,1.3,0.3
			c0.4,0.1,0.6,0.2,0.8,0.2v-1.7c0-0.9-0.1-1.9-0.2-2.7c-0.1-0.9-0.4-1.7-0.9-2.4c-0.5-0.7-1.1-1.3-2-1.7c-0.9-0.4-2-0.7-3.4-0.7
			c-2,0-3.5,0.1-4.4,0.4c-1,0.3-1.7,0.5-2.1,0.7l-0.5-3c0.6-0.3,1.5-0.5,2.7-0.8C484.2,173.9,485.7,173.8,487.4,173.8z M487.7,199
			c1.3,0,2.5,0,3.5-0.1c1-0.1,1.8-0.2,2.5-0.3V189c-0.4-0.2-1-0.4-1.8-0.5c-0.8-0.2-2-0.3-3.4-0.3c-0.8,0-1.7,0.1-2.6,0.2
			c-0.9,0.1-1.7,0.4-2.5,0.8c-0.8,0.4-1.4,0.9-1.9,1.6c-0.5,0.7-0.7,1.6-0.7,2.8c0,1,0.2,1.9,0.5,2.6c0.3,0.7,0.8,1.3,1.4,1.7
			c0.6,0.4,1.3,0.7,2.2,0.9C485.7,198.9,486.6,199,487.7,199z"/>
		<path class="st2" d="M511.7,201.9c-1.1,0-2.2-0.2-3-0.4c-0.9-0.3-1.6-0.7-2.1-1.2c-0.6-0.5-1-1.2-1.3-2.1
			c-0.3-0.9-0.4-1.9-0.4-3.2v-33.4l3.4-0.6v34c0,0.8,0.1,1.5,0.2,2c0.2,0.5,0.4,0.9,0.7,1.2c0.3,0.3,0.7,0.5,1.2,0.7
			c0.5,0.1,1.1,0.3,1.8,0.4L511.7,201.9z"/>
	</g>
</g>
</svg>
